<svg width="40" height="40" viewBox="0 0 40 40" fill="none" xmlns="http://www.w3.org/2000/svg">
<path fill-rule="evenodd" clip-rule="evenodd" d="M38 20C38 29.9411 29.9411 38 20 38C10.0589 38 2 29.9411 2 20C2 10.0589 10.0589 2 20 2C29.9411 2 38 10.0589 38 20ZM40 20C40 31.0457 31.0457 40 20 40C8.9543 40 0 31.0457 0 20C0 8.9543 8.9543 0 20 0C31.0457 0 40 8.9543 40 20ZM13 17.5C14.1046 17.5 15 16.6046 15 15.5C15 14.3954 14.1046 13.5 13 13.5C11.8954 13.5 11 14.3954 11 15.5C11 16.6046 11.8954 17.5 13 17.5ZM11.125 23.3125C11.125 27.1213 14.9145 31.125 19.875 31.125C22.3329 31.125 24.598 30.1333 26.248 28.6352C27.9059 27.13 28.875 25.1803 28.875 23.3125H30.875C30.875 25.863 29.571 28.3195 27.5924 30.116C25.6058 31.9196 22.8709 33.125 19.875 33.125C13.9279 33.125 9.125 28.3402 9.125 23.3125H11.125ZM27 17.5C28.1046 17.5 29 16.6046 29 15.5C29 14.3954 28.1046 13.5 27 13.5C25.8954 13.5 25 14.3954 25 15.5C25 16.6046 25.8954 17.5 27 17.5Z" fill="#515050"/>
</svg>
