<svg width="40" height="40" viewBox="0 0 40 40" fill="none" xmlns="http://www.w3.org/2000/svg">
<path fill-rule="evenodd" clip-rule="evenodd" d="M38 20C38 29.9411 29.9411 38 20 38C10.0589 38 2 29.9411 2 20C2 10.0589 10.0589 2 20 2C29.9411 2 38 10.0589 38 20ZM40 20C40 31.0457 31.0457 40 20 40C8.9543 40 0 31.0457 0 20C0 8.9543 8.9543 0 20 0C31.0457 0 40 8.9543 40 20ZM13 17.5C14.1046 17.5 15 16.6046 15 15.5C15 14.3954 14.1046 13.5 13 13.5C11.8954 13.5 11 14.3954 11 15.5C11 16.6046 11.8954 17.5 13 17.5ZM25.864 25.7628C24.5728 24.5615 22.6425 23.7812 20.125 23.7812C15.1143 23.7812 12.125 26.8309 12.125 30.5937H10.125C10.125 25.52 14.2281 21.7812 20.125 21.7812C23.0613 21.7812 25.506 22.6981 27.2263 24.2985C28.9495 25.9016 29.875 28.1267 29.875 30.5938H27.875C27.875 28.6425 27.1524 26.9613 25.864 25.7628ZM27 17.5C28.1046 17.5 29 16.6046 29 15.5C29 14.3954 28.1046 13.5 27 13.5C25.8954 13.5 25 14.3954 25 15.5C25 16.6046 25.8954 17.5 27 17.5Z" fill="#515050"/>
</svg>
